<?xml version="1.0" standalone="no"?>
<!DOCTYPE svg PUBLIC "-//W3C//DTD SVG 20010904//EN"
 "http://www.w3.org/TR/2001/REC-SVG-20010904/DTD/svg10.dtd">
<svg version="1.0" xmlns="http://www.w3.org/2000/svg"
 width="1000.000000pt" height="1000.000000pt" viewBox="0 0 1000.000000 1000.000000"
 preserveAspectRatio="xMidYMid meet">
<metadata>
Created by potrace 1.11, written by Peter Selinger 2001-2013
</metadata>
<g transform="translate(0.000000,1000.000000) scale(0.100000,-0.100000)"
fill="#000000" stroke="none">
<path d="M9528 6874 c-2 -1 -52 -5 -113 -9 -155 -10 -181 -12 -265 -20 -41 -3
-97 -8 -125 -10 -27 -2 -72 -6 -100 -9 -27 -3 -79 -8 -115 -11 -36 -3 -76 -8
-90 -10 -14 -2 -59 -7 -100 -10 -41 -3 -86 -8 -100 -10 -14 -2 -50 -7 -80 -10
-30 -3 -71 -8 -90 -10 -19 -3 -53 -7 -75 -10 -22 -2 -94 -12 -160 -20 -66 -9
-136 -18 -155 -21 -49 -6 -187 -26 -265 -39 -48 -7 -400 -64 -433 -70 -51 -9
-162 -30 -212 -40 -14 -2 -41 -7 -60 -10 -19 -3 -43 -8 -53 -11 -10 -3 -30 -7
-45 -9 -15 -2 -60 -11 -99 -19 -40 -9 -85 -18 -100 -21 -16 -3 -39 -7 -53 -10
-14 -4 -36 -8 -50 -11 -14 -2 -140 -31 -280 -63 -392 -90 -707 -173 -1120
-294 -479 -141 -1289 -433 -1615 -583 -30 -13 -56 -24 -59 -24 -3 0 -101 -43
-218 -96 -324 -146 -856 -413 -1056 -529 -9 -6 -48 -28 -87 -50 -38 -21 -110
-63 -158 -92 -48 -29 -90 -53 -92 -53 -2 0 -48 -28 -102 -62 -411 -258 -601
-388 -918 -626 -94 -71 -334 -260 -345 -272 -3 -3 -48 -41 -100 -85 -104 -88
-243 -212 -363 -326 l-78 -74 43 -64 43 -64 482 0 482 0 118 116 c125 122 130
127 268 252 48 44 93 85 99 90 13 12 231 201 270 233 15 12 91 74 169 136 521
415 1038 760 1682 1121 202 114 616 324 817 416 62 28 149 68 193 89 44 20
136 60 205 90 69 29 140 59 158 67 60 26 257 105 307 124 28 9 104 39 170 64
462 180 1156 397 1725 540 102 26 192 48 200 50 8 2 58 13 110 25 191 44 369
83 480 104 14 3 81 16 151 30 69 13 145 27 169 31 25 4 47 8 50 10 3 1 25 6
50 9 25 3 56 8 70 11 59 12 125 23 178 30 24 3 53 7 65 10 24 5 47 8 207 31
161 22 164 22 340 44 91 11 184 20 208 22 24 1 45 5 47 8 4 6 -21 10 -27 4z"/>
<path d="M9578 6873 c6 -2 18 -2 25 0 6 3 1 5 -13 5 -14 0 -19 -2 -12 -5z"/>
<path d="M132 5498 c-5 -7 -19 -33 -30 -58 -19 -42 -19 -46 -4 -54 9 -6 53
-36 97 -69 44 -32 89 -65 100 -73 11 -8 45 -32 75 -54 84 -62 90 -67 165 -121
39 -28 81 -59 95 -69 238 -177 632 -460 640 -460 7 0 42 17 78 39 126 73 352
194 540 288 106 54 111 58 95 74 -10 9 -188 141 -396 293 l-377 276 -534 0
c-415 0 -536 -3 -544 -12z"/>
<path d="M2690 4294 c-130 -98 -519 -408 -519 -414 0 -3 19 -19 42 -36 244
-179 974 -711 986 -719 18 -11 1054 -15 1086 -4 11 3 20 10 21 15 1 9 21 62
29 74 2 4 -33 34 -78 67 -45 33 -172 126 -282 206 -235 172 -226 165 -292 214
-28 21 -61 45 -73 53 -12 8 -28 20 -34 25 -6 6 -99 75 -206 153 -107 78 -278
203 -380 277 -102 75 -192 140 -200 144 -10 6 -41 -11 -100 -55z"/>
</g>
</svg>
